# xmcd
#
# Track frame offsets:
#	150
#	18970
#	37565
#	52535
#	67742
#	87317
#	105800
#	122422
#	139827
#	157172
#
# Disc length: 2311 seconds
#
# Revision: 3
# Processed by: cddbd v1.5.1PL0 Copyright (c) Steve Scherf et al.
# Submitted via: dBpowerAMP V4.0
#
DISCID=6409050a
DTITLE=Alabama - Alabama Christmas
DYEAR=1900
DGENRE=country
TTITLE0=Santa Claus (I Still Believe In You)
TTITLE1=Joseph And Mary's Boy
TTITLE2=Happy Holidays
TTITLE3=Christmas Memories
TTITLE4=Tonight Is Christmas
TTITLE5=Thisltlehair The Christmas Bear
TTITLE6=Tennessee Christmas
TTITLE7=A Candle In The Window
TTITLE8=Homecoming Christmas
TTITLE9=Christmas In Dixie
EXTD=
EXTT0=
EXTT1=
EXTT2=
EXTT3=
EXTT4=
EXTT5=
EXTT6=
EXTT7=
EXTT8=
EXTT9=
PLAYORDER=
